<svg width="25" height="24" viewBox="0 0 25 24" fill="none" xmlns="http://www.w3.org/2000/svg">
<g id="Icons">
<mask id="mask0_1_8360" style="mask-type:alpha" maskUnits="userSpaceOnUse" x="0" y="0" width="25" height="24">
<rect id="Bounding box" x="0.5" width="24" height="24" fill="#D9D9D9"/>
</mask>
<g mask="url(#mask0_1_8360)">
<path id="location_on" d="M12.4999 12.0005C13.0499 12.0005 13.5209 11.8045 13.9129 11.4125C14.3042 11.0212 14.4999 10.5505 14.4999 10.0005C14.4999 9.45055 14.3042 8.97955 13.9129 8.58755C13.5209 8.19621 13.0499 8.00055 12.4999 8.00055C11.9499 8.00055 11.4792 8.19621 11.0879 8.58755C10.6959 8.97955 10.4999 9.45055 10.4999 10.0005C10.4999 10.5505 10.6959 11.0212 11.0879 11.4125C11.4792 11.8045 11.9499 12.0005 12.4999 12.0005ZM12.4999 19.3505C14.5332 17.4839 16.0415 15.7879 17.0249 14.2625C18.0082 12.7379 18.4999 11.3839 18.4999 10.2005C18.4999 8.38388 17.9205 6.89621 16.7619 5.73755C15.6039 4.57955 14.1832 4.00055 12.4999 4.00055C10.8165 4.00055 9.39554 4.57955 8.23688 5.73755C7.07888 6.89621 6.49988 8.38388 6.49988 10.2005C6.49988 11.3839 6.99154 12.7379 7.97488 14.2625C8.95821 15.7879 10.4665 17.4839 12.4999 19.3505ZM12.4999 21.6255C12.3665 21.6255 12.2332 21.6005 12.0999 21.5505C11.9665 21.5005 11.8499 21.4339 11.7499 21.3505C9.31654 19.2005 7.49988 17.2049 6.29988 15.3635C5.09988 13.5215 4.49988 11.8005 4.49988 10.2005C4.49988 7.70055 5.30421 5.70888 6.91288 4.22555C8.52088 2.74222 10.3832 2.00055 12.4999 2.00055C14.6165 2.00055 16.4789 2.74222 18.0869 4.22555C19.6955 5.70888 20.4999 7.70055 20.4999 10.2005C20.4999 11.8005 19.8999 13.5215 18.6999 15.3635C17.4999 17.2049 15.6832 19.2005 13.2499 21.3505C13.1499 21.4339 13.0332 21.5005 12.8999 21.5505C12.7665 21.6005 12.6332 21.6255 12.4999 21.6255Z" fill="#49454F"/>
</g>
</g>
</svg>
